<svg xmlns="http://www.w3.org/2000/svg" viewBox="0 0 1200 700"><defs><linearGradient id="g" x1="0" y1="0" x2="1" y2="0"><stop stop-color="#f0d07a"/><stop offset="1" stop-color="#8c5616"/></linearGradient></defs><rect width="1200" height="700" rx="36" fill="#f4f0e8"/><rect x="45" y="45" width="1110" height="610" rx="28" fill="#fff" stroke="#d8cfc2"/><text x="85" y="115" fill="#8c5616" font-family="Arial,sans-serif" font-size="22" font-weight="800" letter-spacing="3">DIAGNÓSTICO DO ROAS</text><text x="85" y="165" fill="#171512" font-family="Arial,sans-serif" font-size="42" font-weight="900">Encontre a passagem onde a venda perde força</text><g transform="translate(90 235)"><rect width="230" height="210" rx="22" fill="#171412"/><text x="28" y="60" fill="#d1a447" font-family="Arial,sans-serif" font-size="16" font-weight="800">01</text><text x="28" y="105" fill="#fff" font-family="Arial,sans-serif" font-size="27" font-weight="900">Anúncio</text><text x="28" y="145" fill="#b9b1a8" font-family="Arial,sans-serif" font-size="17">gancho · público</text><text x="28" y="174" fill="#b9b1a8" font-family="Arial,sans-serif" font-size="17">criativo · oferta</text></g><g transform="translate(365 235)"><rect width="230" height="210" rx="22" fill="#171412"/><text x="28" y="60" fill="#d1a447" font-family="Arial,sans-serif" font-size="16" font-weight="800">02</text><text x="28" y="105" fill="#fff" font-family="Arial,sans-serif" font-size="27" font-weight="900">Clique</text><text x="28" y="145" fill="#b9b1a8" font-family="Arial,sans-serif" font-size="17">CTR · CPC</text><text x="28" y="174" fill="#b9b1a8" font-family="Arial,sans-serif" font-size="17">intenção · promessa</text></g><g transform="translate(640 235)"><rect width="230" height="210" rx="22" fill="#171412"/><text x="28" y="60" fill="#d1a447" font-family="Arial,sans-serif" font-size="16" font-weight="800">03</text><text x="28" y="105" fill="#fff" font-family="Arial,sans-serif" font-size="27" font-weight="900">Página</text><text x="28" y="145" fill="#b9b1a8" font-family="Arial,sans-serif" font-size="17">conversão · prova</text><text x="28" y="174" fill="#b9b1a8" font-family="Arial,sans-serif" font-size="17">oferta · clareza</text></g><g transform="translate(915 235)"><rect width="230" height="210" rx="22" fill="#171412"/><text x="28" y="60" fill="#d1a447" font-family="Arial,sans-serif" font-size="16" font-weight="800">04</text><text x="28" y="105" fill="#fff" font-family="Arial,sans-serif" font-size="27" font-weight="900">Compra</text><text x="28" y="145" fill="#b9b1a8" font-family="Arial,sans-serif" font-size="17">CPA · receita</text><text x="28" y="174" fill="#b9b1a8" font-family="Arial,sans-serif" font-size="17">checkout · atribuição</text></g><g stroke="url(#g)" stroke-width="6" fill="none"><path d="M320 340 H350"/><path d="M595 340 H625"/><path d="M870 340 H900"/></g><text x="90" y="545" fill="#5f5851" font-family="Arial,sans-serif" font-size="22">Compare uma etapa com a seguinte. O ROAS é o resultado da operação de mídia dentro do caminho da venda.</text></svg>