<svg xmlns="http://www.w3.org/2000/svg" width="1200" height="780" viewBox="0 0 1200 780">
<defs>
  <linearGradient id="bg" x1="0" x2="1" y1="0" y2="1">
    <stop offset="0" stop-color="#fbfdff"/>
    <stop offset="0.6" stop-color="#eaf7ff"/>
    <stop offset="1" stop-color="#c7e9ff"/>
  </linearGradient>
  <filter id="sh" x="-30%" y="-30%" width="160%" height="160%">
    <feDropShadow dx="0" dy="20" stdDeviation="20" flood-color="#17465f" flood-opacity=".16"/>
  </filter>
</defs>
<rect width="1200" height="780" rx="44" fill="url(#bg)"/>
<circle cx="1035" cy="110" r="215" fill="#91d4ff" opacity=".20"/>
<circle cx="100" cy="720" r="250" fill="#91d4ff" opacity=".17"/>

<g transform="translate(82 88)">
  <rect x="0" y="0" width="148" height="38" rx="19" fill="#08263f"/>
  <text x="74" y="25" fill="#dff3ff" font-size="14" font-weight="800" text-anchor="middle" font-family="Arial, sans-serif" letter-spacing="1.3">E-MAIL DE VENDAS</text>
  <text x="0" y="119" fill="#10283e" font-size="63" font-weight="800" font-family="Arial, sans-serif">Do assunto</text>
  <text x="0" y="190" fill="#10283e" font-size="63" font-weight="800" font-family="Arial, sans-serif">até a oferta.</text>
  <text x="0" y="254" fill="#0874ad" font-size="29" font-weight="700" font-family="Arial, sans-serif">Abertura → argumento → prova → CTA</text>
  <text x="0" y="308" fill="#4c687b" font-size="23" font-family="Arial, sans-serif">Uma estrutura para conduzir sem despejar a oferta.</text>
</g>

<g transform="translate(720 185)" filter="url(#sh)">
  <rect x="0" y="0" width="380" height="470" rx="28" fill="#fff" stroke="#c4deeb" stroke-width="3"/>
  <rect x="30" y="28" width="320" height="54" rx="14" fill="#e7f5fd"/>
  <text x="48" y="51" fill="#17384d" font-size="14" font-weight="800" font-family="Arial, sans-serif">ASSUNTO</text>
  <text x="48" y="72" fill="#557084" font-size="14" font-family="Arial, sans-serif">A parte da oferta que quase ninguém explica</text>
  <line x1="32" y1="110" x2="348" y2="110" stroke="#d7e7ef" stroke-width="2"/>

  <rect x="32" y="138" width="255" height="20" rx="10" fill="#dcebf2"/>
  <rect x="32" y="172" width="305" height="14" rx="7" fill="#e7f0f5"/>
  <rect x="32" y="198" width="290" height="14" rx="7" fill="#e7f0f5"/>
  <rect x="32" y="224" width="315" height="14" rx="7" fill="#e7f0f5"/>

  <rect x="32" y="270" width="230" height="20" rx="10" fill="#cfefff"/>
  <rect x="32" y="304" width="305" height="14" rx="7" fill="#e7f0f5"/>
  <rect x="32" y="330" width="268" height="14" rx="7" fill="#e7f0f5"/>

  <rect x="32" y="379" width="174" height="48" rx="24" fill="#08263f"/>
  <text x="119" y="408" fill="#dff3ff" font-size="15" font-weight="900" text-anchor="middle" font-family="Arial, sans-serif">VER A OFERTA</text>
</g>

<text x="82" y="718" fill="#08263f" font-size="20" font-weight="800" font-family="Arial, sans-serif">MPMV — MAIS PERSUASÃO, MAIS VENDAS</text>
</svg>