<svg xmlns="http://www.w3.org/2000/svg" viewBox="0 0 1200 675"><defs><linearGradient id="bg" x1="0" y1="0" x2="1" y2="1"><stop offset="0" stop-color="#0b0b0b"/><stop offset="1" stop-color="#241012"/></linearGradient><linearGradient id="gold" x1="0" y1="0" x2="1" y2="0"><stop offset="0" stop-color="#f0d07a"/><stop offset="1" stop-color="#bd8125"/></linearGradient></defs><rect width="1200" height="675" fill="url(#bg)"/><text x="70" y="100" fill="#d1a447" font-family="Arial,sans-serif" font-size="24" font-weight="700" letter-spacing="5">FUNIL + MÉTRICAS</text><text x="70" y="185" fill="#fff" font-family="Arial,sans-serif" font-size="58" font-weight="800">Como criar um</text><text x="70" y="252" fill="url(#gold)" font-family="Arial,sans-serif" font-size="58" font-weight="800">funil de vendas previsível</text><text x="70" y="300" fill="#d3cdc6" font-family="Arial,sans-serif" font-size="25">Da meta ao número de leads</text><g transform="translate(760 125)"><rect width="350" height="430" rx="28" fill="#171412" stroke="#40372e" stroke-width="2"/><text x="30" y="48" fill="#d5b45f" font-family="Arial,sans-serif" font-size="15" font-weight="700" letter-spacing="2">PLANEJAMENTO DO FUNIL</text><path d="M35 90 H315 L285 155 H65 Z" fill="url(#gold)"/><path d="M65 175 H285 L260 240 H90 Z" fill="url(#gold)"/><path d="M90 260 H260 L235 325 H115 Z" fill="url(#gold)"/><path d="M115 345 H235 L210 410 H140 Z" fill="url(#gold)"/><text x="175" y="130" text-anchor="middle" fill="#111" font-family="Arial,sans-serif" font-size="18" font-weight="800">TRÁFEGO</text><text x="175" y="215" text-anchor="middle" fill="#111" font-family="Arial,sans-serif" font-size="18" font-weight="800">LEADS</text><text x="175" y="300" text-anchor="middle" fill="#111" font-family="Arial,sans-serif" font-size="18" font-weight="800">OPORTUNIDADES</text><text x="175" y="385" text-anchor="middle" fill="#111" font-family="Arial,sans-serif" font-size="18" font-weight="800">VENDAS</text><text x="175" y="460" text-anchor="middle" fill="#cfc7be" font-family="Arial,sans-serif" font-size="15">volume × conversão</text></g><text x="70" y="610" fill="#8f8880" font-family="Arial,sans-serif" font-size="18">MPMV — Mais Persuasão, Mais Vendas</text></svg>