<svg xmlns="http://www.w3.org/2000/svg" width="1200" height="675" viewBox="0 0 1200 675" role="img" aria-labelledby="t d"><title id="t">Bullet points de vendas</title><desc id="d">Página de vendas com lista de benefícios destacada</desc><defs><linearGradient id="bg" x1="0" y1="0" x2="1" y2="1"><stop stop-color="#fbfcff"/><stop offset="1" stop-color="#fff0d9"/></linearGradient><filter id="s"><feDropShadow dx="0" dy="18" stdDeviation="18" flood-color="#0b2b42" flood-opacity=".14"/></filter></defs><rect width="1200" height="675" fill="url(#bg)"/><circle cx="1040" cy="570" r="260" fill="#ffe3b5" opacity=".75"/><g filter="url(#s)" transform="translate(150 85)"><rect width="900" height="505" rx="30" fill="#fff"/><rect x="0" y="0" width="900" height="70" rx="30" fill="#0b263d"/><rect x="0" y="38" width="900" height="32" fill="#0b263d"/><circle cx="38" cy="35" r="8" fill="#ff786c"/><circle cx="64" cy="35" r="8" fill="#ffd166"/><circle cx="90" cy="35" r="8" fill="#62d18d"/><rect x="58" y="112" width="360" height="28" rx="14" fill="#132f45"/><rect x="58" y="157" width="286" height="18" rx="9" fill="#d4e2ea"/><g font-family="Arial,sans-serif"><g transform="translate(58 218)"><circle cx="18" cy="18" r="18" fill="#ffad42"/><path d="M10 18l6 7 11-14" fill="none" stroke="#fff" stroke-width="5" stroke-linecap="round" stroke-linejoin="round"/><rect x="52" y="7" width="418" height="22" rx="11" fill="#24465c"/><rect x="52" y="40" width="340" height="14" rx="7" fill="#d7e5ec"/></g><g transform="translate(58 304)"><circle cx="18" cy="18" r="18" fill="#ffad42"/><path d="M10 18l6 7 11-14" fill="none" stroke="#fff" stroke-width="5" stroke-linecap="round" stroke-linejoin="round"/><rect x="52" y="7" width="355" height="22" rx="11" fill="#24465c"/><rect x="52" y="40" width="412" height="14" rx="7" fill="#d7e5ec"/></g><g transform="translate(58 390)"><circle cx="18" cy="18" r="18" fill="#ffad42"/><path d="M10 18l6 7 11-14" fill="none" stroke="#fff" stroke-width="5" stroke-linecap="round" stroke-linejoin="round"/><rect x="52" y="7" width="390" height="22" rx="11" fill="#24465c"/><rect x="52" y="40" width="300" height="14" rx="7" fill="#d7e5ec"/></g></g><rect x="610" y="145" width="232" height="260" rx="24" fill="#fff8ee" stroke="#ffd59a" stroke-width="3"/><text x="726" y="198" text-anchor="middle" fill="#0b263d" font-family="Arial,sans-serif" font-size="20" font-weight="800">ENTREGÁVEL</text><rect x="652" y="230" width="148" height="106" rx="18" fill="#ffad42"/><path d="M685 264h82M685 287h62M685 310h72" stroke="#fff" stroke-width="12" stroke-linecap="round"/><text x="726" y="373" text-anchor="middle" fill="#d87900" font-family="Arial,sans-serif" font-size="16" font-weight="800">→ BENEFÍCIO</text></g><g transform="translate(70 70)"><rect width="122" height="38" rx="19" fill="#0b263d"/><text x="61" y="25" text-anchor="middle" fill="#fff" font-family="Arial,sans-serif" font-size="14" font-weight="800">MPMV</text></g></svg>