<svg xmlns="http://www.w3.org/2000/svg" width="1200" height="760" viewBox="0 0 1200 760">
<defs><linearGradient id="g" x1="0" x2="1"><stop offset="0" stop-color="#f0d07a"/><stop offset=".58" stop-color="#bd8125"/><stop offset="1" stop-color="#8c5616"/></linearGradient></defs>
<rect width="1200" height="760" fill="#0d0d0d"/><circle cx="1040" cy="100" r="260" fill="#a51f27" opacity=".13"/><circle cx="160" cy="690" r="260" fill="#c99c3d" opacity=".10"/>
<text x="90" y="105" fill="#e0bc65" font-family="Arial" font-size="29" font-weight="700">MOMENTO DE COMPRA</text>
<g transform="translate(90 165)"><rect width="1020" height="135" rx="26" fill="#171717" stroke="#34302b"/><circle cx="72" cy="67" r="38" fill="#282828"/><text x="60" y="80" fill="#ddd" font-family="Arial" font-size="34" font-weight="700">1</text><text x="140" y="57" fill="#fff" font-family="Arial" font-size="32" font-weight="700">Lead frio</text><text x="140" y="98" fill="#aaa29a" font-family="Arial" font-size="24">Contexto, problema, interesse</text><text x="870" y="80" fill="#aaa29a" font-family="Arial" font-size="22" font-weight="700">ENTENDER</text></g>
<g transform="translate(90 325)"><rect width="1020" height="135" rx="26" fill="#171717" stroke="#5b4828"/><circle cx="72" cy="67" r="38" fill="#8b6825"/><text x="60" y="80" fill="#111" font-family="Arial" font-size="34" font-weight="700">2</text><text x="140" y="57" fill="#fff" font-family="Arial" font-size="32" font-weight="700">Lead morno</text><text x="140" y="98" fill="#c3bbb3" font-family="Arial" font-size="24">Prova, comparação, confiança</text><text x="870" y="80" fill="#e1b64e" font-family="Arial" font-size="22" font-weight="700">AVALIAR</text></g>
<g transform="translate(90 485)"><rect width="1020" height="135" rx="26" fill="#171717" stroke="#7a521d"/><circle cx="72" cy="67" r="38" fill="url(#g)"/><text x="60" y="80" fill="#111" font-family="Arial" font-size="34" font-weight="700">3</text><text x="140" y="57" fill="#fff" font-family="Arial" font-size="32" font-weight="700">Lead quente</text><text x="140" y="98" fill="#d4ccc3" font-family="Arial" font-size="24">Oferta, risco, condição</text><text x="870" y="80" fill="#f0ca64" font-family="Arial" font-size="22" font-weight="700">DECIDIR</text></g>
<path d="M165 670 H1040" stroke="url(#g)" stroke-width="10" stroke-linecap="round"/><path d="M1040 670 l-38 -26 M1040 670 l-38 26" stroke="#bd8125" stroke-width="10" fill="none" stroke-linecap="round"/>
</svg>