<svg xmlns="http://www.w3.org/2000/svg" width="1200" height="900" viewBox="0 0 1200 900" role="img" aria-labelledby="t d">
<title id="t">Como criar uma página de vendas</title>
<desc id="d">Ilustração editorial clara de uma página de vendas organizada em blocos de headline, prova, oferta e CTA.</desc>
<defs>
  <linearGradient id="bg" x1="0" y1="0" x2="1" y2="1">
    <stop offset="0" stop-color="#fafdff"/>
    <stop offset="1" stop-color="#dff3ff"/>
  </linearGradient>
  <filter id="shadow" x="-20%" y="-20%" width="140%" height="140%">
    <feDropShadow dx="0" dy="24" stdDeviation="24" flood-color="#0b3453" flood-opacity=".14"/>
  </filter>
</defs>
<rect width="1200" height="900" rx="52" fill="url(#bg)"/>
<circle cx="160" cy="125" r="92" fill="#8fd3ff" opacity=".55"/>
<circle cx="1045" cy="760" r="125" fill="#b9e6ff" opacity=".7"/>
<g transform="translate(180 80)" filter="url(#shadow)">
  <rect width="840" height="740" rx="28" fill="#fff" stroke="#bed9e8" stroke-width="3"/>
  <rect width="840" height="58" rx="28" fill="#08263f"/>
  <circle cx="38" cy="29" r="8" fill="#9dd9ff"/>
  <circle cx="66" cy="29" r="8" fill="#dff3ff"/>
  <circle cx="94" cy="29" r="8" fill="#6dbde9"/>
  <rect x="140" y="20" width="530" height="18" rx="9" fill="#d8edf8" opacity=".32"/>
  <rect x="62" y="102" width="145" height="16" rx="8" fill="#0874ad"/>
  <rect x="62" y="142" width="600" height="34" rx="10" fill="#102d45"/>
  <rect x="62" y="190" width="510" height="22" rx="10" fill="#7794a7"/>
  <rect x="62" y="242" width="198" height="48" rx="24" fill="#8fd3ff"/>
  <rect x="62" y="338" width="716" height="1" fill="#d5e5ee"/>
  <rect x="62" y="376" width="310" height="22" rx="10" fill="#102d45"/>
  <rect x="62" y="416" width="716" height="92" rx="18" fill="#eef8fd" stroke="#c7dfec"/>
  <rect x="86" y="440" width="220" height="16" rx="8" fill="#0874ad"/>
  <rect x="86" y="470" width="565" height="13" rx="7" fill="#7591a3"/>
  <rect x="62" y="548" width="220" height="22" rx="10" fill="#102d45"/>
  <g transform="translate(62 596)">
    <rect width="220" height="86" rx="17" fill="#f8fbfe" stroke="#c7dfec"/>
    <rect x="18" y="20" width="66" height="10" rx="5" fill="#8fd3ff"/>
    <rect x="18" y="45" width="168" height="12" rx="6" fill="#5c7b8f"/>
  </g>
  <g transform="translate(310 596)">
    <rect width="220" height="86" rx="17" fill="#f8fbfe" stroke="#c7dfec"/>
    <rect x="18" y="20" width="66" height="10" rx="5" fill="#8fd3ff"/>
    <rect x="18" y="45" width="168" height="12" rx="6" fill="#5c7b8f"/>
  </g>
  <g transform="translate(558 596)">
    <rect width="220" height="86" rx="17" fill="#f8fbfe" stroke="#c7dfec"/>
    <rect x="18" y="20" width="66" height="10" rx="5" fill="#8fd3ff"/>
    <rect x="18" y="45" width="168" height="12" rx="6" fill="#5c7b8f"/>
  </g>
</g>
<g font-family="Inter,Arial,sans-serif" font-weight="900">
  <rect x="78" y="638" width="214" height="72" rx="20" fill="#08263f"/>
  <text x="185" y="669" text-anchor="middle" font-size="18" fill="#9dd9ff">HEADLINE</text>
  <text x="185" y="691" text-anchor="middle" font-size="13" fill="#fff">PROMESSA + CONTEXTO</text>
  <rect x="908" y="174" width="214" height="72" rx="20" fill="#08263f"/>
  <text x="1015" y="205" text-anchor="middle" font-size="18" fill="#9dd9ff">PROVA</text>
  <text x="1015" y="227" text-anchor="middle" font-size="13" fill="#fff">CONFIANÇA</text>
  <rect x="913" y="478" width="214" height="72" rx="20" fill="#0874ad"/>
  <text x="1020" y="509" text-anchor="middle" font-size="18" fill="#fff">OFERTA</text>
  <text x="1020" y="531" text-anchor="middle" font-size="13" fill="#eaf7ff">VALOR + CTA</text>
</g>
</svg>